# File created by Blade
# Date/Time:  Tue Apr 07 20:35:32 2015
# Frame Rate: 120.000 fps
#------------------------------------------------------
:FULLY-SPECIFIED
:DEGREES
772
root 0.026575 34.851462 -3.871008 34.227697 -23.925353 -46.774193
Spine -5.649306 16.700122 29.498884
Head 3.482210 9.145051 15.409824
LeftShoulder -19.251770 40.728890 22.001158
LeftArm 54.319782 -55.287502 -73.262317
LeftForeArm 1.478744 -0.000000 11.272274
LeftHand 11.385164 -0.000000 4.749851
LeftHandThumb1 -26.253704 0.000000 33.147579
RightShoulder 2.741857 7.314026 -14.328860
RightArm 25.874997 -16.094304 81.348437
RightForeArm -7.509247 0.000000 10.901449
RightHand -0.443530 -0.000000 11.123340
RightHandThumb1 -24.326973 -0.000000 -32.862282
LeftUpLeg -11.144502 -3.921897 39.211610
LeftLeg 8.178852 -0.000000 -0.000000
LeftFoot -3.092697 26.932451 -0.654887
LeftToeBase -11.744257 -0.000000 0.000000
RightUpLeg -49.483632 -24.321294 -39.483690
RightLeg 79.739926 -0.000000 -0.000000
RightFoot 42.415566 -4.564011 -8.358608
RightToeBase 35.108457 -0.000000 -0.000000
773
root 0.052149 34.833478 -3.865358 34.116491 -24.275789 -46.638056
Spine -5.469407 16.774894 29.418025
Head 3.584391 9.257779 15.065487
LeftShoulder -19.282831 40.699384 21.965437
LeftArm 54.382416 -55.433589 -72.999177
LeftForeArm 1.496231 0.000000 11.360940
LeftHand 11.356068 0.000000 4.788923
LeftHandThumb1 -26.253704 0.000000 33.147579
RightShoulder 2.878198 7.392818 -14.570487
RightArm 25.916869 -16.456032 81.616424
RightForeArm -7.507390 0.000000 10.755759
RightHand -0.448740 0.000000 10.913165
RightHandThumb1 -24.326973 -0.000000 -32.862282
LeftUpLeg -11.024457 -4.019665 38.887125
LeftLeg 8.326035 -0.000000 -0.000000
LeftFoot -3.257098 27.042507 -0.768688
LeftToeBase -11.812994 -0.000000 0.000000
RightUpLeg -49.840807 -24.848079 -39.006895
RightLeg 79.320671 -0.000000 -0.000000
RightFoot 42.338552 -4.978122 -8.109255
RightToeBase 35.162947 -0.000000 -0.000000
774
root 0.075784 34.817376 -3.863488 34.107287 -24.649715 -46.591833
Spine -5.330020 16.935788 29.376455
Head 3.707382 9.390056 14.734731
LeftShoulder -19.332205 40.684046 21.928789
LeftArm 54.442684 -55.569365 -72.697309
LeftForeArm 1.535447 0.000000 11.377105
LeftHand 11.333898 0.000000 4.810475
LeftHandThumb1 -26.253704 0.000000 33.147579
RightShoulder 3.031860 7.444146 -14.810446
RightArm 25.988927 -16.835568 81.871594
RightForeArm -7.396631 0.000000 10.605166
RightHand -0.430150 -0.000000 11.002733
RightHandThumb1 -24.326973 -0.000000 -32.862282
LeftUpLeg -10.931175 -4.019634 38.624613
LeftLeg 8.511945 -0.000000 -0.000000
LeftFoot -3.441307 27.174150 -0.890795
LeftToeBase -11.964636 -0.000000 0.000000
RightUpLeg -50.351243 -25.442496 -38.352278
RightLeg 78.940294 -0.000000 -0.000000
RightFoot 42.394094 -5.471995 -7.892708
RightToeBase 34.836695 -0.000000 -0.000000
775
root 0.101500 34.798123 -3.862683 34.075778 -25.066689 -46.468117
Spine -5.203445 17.119252 29.233985
Head 3.840010 9.530182 14.433692
LeftShoulder -19.360429 40.664831 21.881554
LeftArm 54.449000 -55.715132 -72.269607
LeftForeArm 1.514263 -0.000000 11.324020
LeftHand 11.363540 -0.000000 4.888924
LeftHandThumb1 -26.253704 0.000000 33.147579
RightShoulder 3.191352 7.479436 -15.035475
RightArm 26.038849 -17.010191 82.242109
RightForeArm -7.546224 -0.000000 10.476084
RightHand -0.496226 -0.000000 10.974516
RightHandThumb1 -24.326973 -0.000000 -32.862282
LeftUpLeg -10.853595 -4.043646 38.276888
LeftLeg 8.689063 -0.000000 -0.000000
LeftFoot -3.634230 27.316412 -0.996697
LeftToeBase -11.836677 -0.000000 0.000000
RightUpLeg -50.902569 -26.115205 -37.741456
RightLeg 78.619437 -0.000000 -0.000000
RightFoot 42.401931 -5.930087 -7.711028
RightToeBase 34.629409 -0.000000 -0.000000
776
root 0.126138 34.777616 -3.859894 34.010670 -25.511588 -46.330877
Spine -5.044803 17.327074 29.064338
Head 3.972087 9.645228 14.162126
LeftShoulder -19.394278 40.624187 21.846759
LeftArm 54.486294 -55.850691 -71.864960
LeftForeArm 1.506875 -0.000000 11.252173
LeftHand 11.411986 -0.000000 4.932800
LeftHandThumb1 -26.253704 0.000000 33.147579
RightShoulder 3.324493 7.506014 -15.236081
RightArm 26.137373 -17.318435 82.527500
RightForeArm -7.596524 -0.000000 10.317614
RightHand -0.546320 -0.000000 10.978507
RightHandThumb1 -24.326973 -0.000000 -32.862282
LeftUpLeg -10.732909 -4.065201 37.892484
LeftLeg 8.857443 -0.000000 -0.000000
LeftFoot -3.817298 27.486691 -1.059721
LeftToeBase -11.835430 -0.000000 0.000000
RightUpLeg -51.472929 -26.826575 -37.105711
RightLeg 78.344025 -0.000000 -0.000000
RightFoot 42.391194 -6.278591 -7.626283
RightToeBase 34.387688 -0.000000 -0.000000
